<svg width="800" height="600" viewBox="0 0 800 600" fill="none" xmlns="http://www.w3.org/2000/svg">
  <rect width="800" height="600" fill="#F3F4F6"/>
  <path d="M600 300C600 465.685 465.685 600 300 600C134.315 600 0 465.685 0 300C0 134.315 134.315 0 300 0C465.685 0 600 134.315 600 300Z" fill="#E5E7EB"/>
  <path d="M400 300C400 356.451 353.451 403 297 403C240.549 403 194 356.451 194 300C194 243.549 240.549 197 297 197C353.451 197 400 243.549 400 300Z" fill="#D1D5DB"/>
  <path d="M297 250C277.118 250 261 266.118 261 286C261 305.882 277.118 322 297 322C316.882 322 333 305.882 333 286C333 266.118 316.882 250 297 250Z" fill="#9CA3AF"/>
  <path d="M300 400C300 400 250 300 150 300" stroke="#9CA3AF" stroke-width="2" stroke-linecap="round"/>
  <path d="M300 400C300 400 350 300 450 300" stroke="#9CA3AF" stroke-width="2" stroke-linecap="round"/>
</svg>
